PathFileType	4	(x/y/z)	S10_P20_T02
DataRate	CameraRate	NumFrames	NumMarkers	Units	OrigDataRate	OrigDataStartFrame	OrigNumFrames
240	240	9	51	mm	240	1	422
Frame#	Time	Sternum			R.Acromium			L.Acromium			Top.Head			R.ASIS			L.ASIS			R.PSIS			L.PSIS			R.Great.Tro			L.Great.Tro			R.Iliac.Crest			L.Iliac.Crest			V.Sacral			R.Thigh.Upper.Post			R.Thigh.Lower.Ant			R.Thigh.Lower.Post			R.Thigh.Upper.Ant			R.Knee.Lat			R.Knee.Med			R.Shank.Upper.Post			R.Shank.Lower.Ant			R.Shank.Lower.Post			R.Shank.Upper.Ant			R.Ankle.Lat			R.Ankle.Med			R.Heel.Upper			R.Heel.Med			R.Heel.Lat			R.Toe.Lat			R.Toe.Med			R.Toe.Tip			L.Thigh.Upper.Post			L.Thigh.Lower.Ant			L.Thigh.Lower.Post			L.Thigh.Upper.Ant			L.Knee.Lat			L.Knee.Med			L.Shank.Upper.Post			L.Shank.Lower.Ant			L.Shank.Lower.Post			L.Shank.Upper.Ant			L.Ankle.Lat			L.Ankle.Med			L.Heel.Upper			L.Heel.Med			L.Heel.Lat			L.Toe.Lat			L.Toe.Med			L.Toe.Tip			Cervical.Spine			Back			
		X1	Y1	Z1	X2	Y2	Z2	X3	Y3	Z3	X4	Y4	Z4	X5	Y5	Z5	X6	Y6	Z6	X7	Y7	Z7	X8	Y8	Z8	X9	Y9	Z9	X10	Y10	Z10	X11	Y11	Z11	X12	Y12	Z12	X13	Y13	Z13	X14	Y14	Z14	X15	Y15	Z15	X16	Y16	Z16	X17	Y17	Z17	X18	Y18	Z18	X19	Y19	Z19	X20	Y20	Z20	X21	Y21	Z21	X22	Y22	Z22	X23	Y23	Z23	X24	Y24	Z24	X25	Y25	Z25	X26	Y26	Z26	X27	Y27	Z27	X28	Y28	Z28	X29	Y29	Z29	X30	Y30	Z30	X31	Y31	Z31	X32	Y32	Z32	X33	Y33	Z33	X34	Y34	Z34	X35	Y35	Z35	X36	Y36	Z36	X37	Y37	Z37	X38	Y38	Z38	X39	Y39	Z39	X40	Y40	Z40	X41	Y41	Z41	X42	Y42	Z42	X43	Y43	Z43	X44	Y44	Z44	X45	Y45	Z45	X46	Y46	Z46	X47	Y47	Z47	X48	Y48	Z48	X49	Y49	Z49	X50	Y50	Z50	X51	Y51	Z51	

1	0	-1273.4	1277.7	318.55	-1386.8	1436.4	481.43	-1422.2	1458.9	183.76	-1428.4	1749.6	355.42	NaN	NaN	NaN	NaN	NaN	NaN	-1525.4	1025.2	360.44	-1524.7	1032.7	279.4	-1397.9	930.1	517.33	-1382.8	960.97	151.4	-1417.4	1086.1	490.12	-1416.7	1102.4	189.77	-1544.7	993.88	324.23	NaN	NaN	NaN	-1426.2	627.95	475.27	-1480.4	640.4	487.96	-1403.2	710.29	494.88	-1526.8	526.02	444.06	-1526.7	536.92	310.78	-1679.2	346.61	432.16	-1633.8	265.91	413.25	NaN	NaN	NaN	-1601.4	330.76	422.8	-1736.3	174.47	399.66	-1724.2	184.04	322.56	-1813.3	154.88	350.42	-1814.8	126.79	322.41	-1822.3	129.94	383.58	-1672.2	50.561	432.24	-1638	48.17	326.66	-1581.2	53.471	365.07	-1341.5	683.07	160.85	-1246.3	627.1	179.63	-1313.9	593.26	181.85	-1266.5	713.45	156.52	-1251.5	525.33	190.63	-1239.3	526.8	320.09	-1252.3	302.95	190.46	-1161.7	239.84	201.62	-1228	229.4	200.22	-1187.8	311.14	191.96	-1157.1	116.55	210.37	-1144.8	133.91	294.75	-1205.5	63.582	256.32	-1184	40.967	290.78	-1187.2	38.756	226.51	-1018.4	87.906	191.53	NaN	NaN	NaN	-954.79	141.51	248.03	-1481.4	1494.9	352.23	-1562.8	1285.4	351.29
2	0.0041667	-1268.3	1277.1	318.39	-1382.4	1435.7	481.18	-1416.7	1458.1	183.36	-1423.7	1748.9	355.19	NaN	NaN	NaN	NaN	NaN	NaN	-1520.1	1024.5	359.92	-1519.3	1032	278.88	-1392.8	929.4	516.83	-1376.7	960.39	151.15	-1412.3	1085.4	489.73	-1411.8	1101.8	189.4	-1539.2	993.09	323.66	NaN	NaN	NaN	-1419.2	627.54	475.45	-1474.6	639.66	487.86	-1397	709.74	494.42	-1520.1	524.77	444	-1520.2	535.71	311	-1673.3	346.79	432.79	-1630.3	266.19	413.45	NaN	NaN	NaN	-1597.2	330.65	422.99	-1733.7	175.84	399.88	-1721.6	185.22	322.82	-1810.9	157.33	350.49	-1812.8	129.38	322.44	-1820.5	132.55	383.6	-1671.7	50.688	432.31	-1637.6	48.12	326.9	-1581.1	53.456	365.02	-1335.9	682.39	160.93	-1240.5	626.61	180.34	-1308.5	592.61	182.19	-1260.9	712.75	157.19	-1246.1	524.73	191.24	-1234.3	526.28	320.47	-1248.8	302.36	190.76	-1158.8	238.48	202.23	-1225.4	228.73	200.65	-1184.2	310.15	192.68	-1155	115.68	210.71	-1143	132.49	295.26	-1204	63.997	256.55	-1183.2	40.765	290.93	-1186.3	38.972	226.66	-1016.9	85.214	192.31	NaN	NaN	NaN	-952.46	137.91	249.47	-1476.7	1494.1	351.81	-1557.8	1284.5	350.71
3	0.0083333	-1263	1276.6	318.22	-1377.9	1435.1	480.91	-1411	1457.3	182.93	-1418.9	1748.2	354.95	NaN	NaN	NaN	NaN	NaN	NaN	-1514.6	1023.7	359.38	-1513.7	1031.2	278.34	-1387.5	928.68	516.31	-1370.3	959.8	150.89	-1407	1084.8	489.33	-1406.6	1101.3	189.01	-1533.6	992.28	323.07	NaN	NaN	NaN	-1411.9	627.12	475.63	-1468.4	638.88	487.75	-1390.5	709.17	493.98	-1513.1	523.48	443.97	-1513.4	534.44	311.24	-1667.3	347.01	433.41	-1626.6	266.48	413.67	NaN	NaN	NaN	-1592.7	330.54	423.2	-1731	177.29	400.1	-1718.8	186.46	323.08	-1808.3	159.94	350.55	-1810.5	132.14	322.46	-1818.4	135.33	383.61	-1671.3	50.833	432.39	-1637.1	48.18	326.98	-1581	53.437	364.96	-1330	681.7	161	-1234.6	626.14	181.01	-1302.9	591.95	182.52	-1255.2	712.05	157.87	-1240.4	524.1	191.85	-1229.1	525.73	320.87	-1245.1	301.77	191.08	-1155.7	237.1	202.85	-1222.5	228.05	201.08	-1180.4	309.14	193.42	-1152.8	114.81	211.05	-1141	131.05	295.78	-1202.5	64.447	256.78	-1182.4	40.588	291.08	-1185.4	39.217	226.81	-1015.3	82.43	193.08	NaN	NaN	NaN	-950.08	134.14	250.87	-1471.8	1493.4	351.35	-1552.6	1283.6	350.1
4	0.0125	-1257.6	1276.1	318.05	-1373.2	1434.4	480.63	-1405	1456.5	182.48	-1413.9	1747.6	354.7	NaN	NaN	NaN	NaN	NaN	NaN	-1508.9	1022.9	358.83	-1507.9	1030.4	277.77	-1382	927.95	515.77	-1363.8	959.22	150.61	-1401.4	1084.1	488.91	-1401.2	1100.7	188.6	-1527.8	991.46	322.46	NaN	NaN	NaN	-1404.3	626.7	475.82	-1462	638.06	487.65	-1383.8	708.58	493.55	-1505.9	522.15	443.98	-1506.4	533.11	311.49	-1661	347.26	434	-1622.8	266.78	413.93	NaN	NaN	NaN	-1587.9	330.43	423.43	-1728.1	178.8	400.32	-1715.7	187.74	323.36	-1805.4	162.68	350.58	-1808	135.05	322.45	-1816.2	138.28	383.61	-1670.8	51	432.47	-1636.8	48.106	327.18	-1580.9	53.412	364.9	-1324	681.03	161.06	-1228.4	625.67	181.62	-1297.1	591.3	182.83	-1249.2	711.34	158.56	-1234.7	523.47	192.44	-1223.8	525.15	321.28	-1241.3	301.18	191.42	-1152.4	235.74	203.49	-1219.4	227.36	201.5	-1176.4	308.13	194.16	-1150.5	113.94	211.38	-1139	129.6	296.31	-1200.9	64.931	257.02	-1181.6	40.444	291.23	-1184.5	39.492	226.97	-1013.7	79.58	193.84	NaN	NaN	NaN	-947.66	130.23	252.21	-1466.8	1492.6	350.88	-1547.3	1282.7	349.46
5	0.016667	-1252	1275.6	317.88	-1368.4	1433.7	480.34	-1399	1455.7	182.01	-1408.7	1746.9	354.46	NaN	NaN	NaN	NaN	NaN	NaN	-1503	1022	358.25	-1501.9	1029.6	277.2	-1376.3	927.19	515.22	-1357	958.66	150.31	-1395.7	1083.4	488.47	-1395.5	1100.2	188.17	-1521.8	990.63	321.84	NaN	NaN	NaN	-1396.3	626.27	476	-1455.3	637.2	487.56	-1376.9	707.96	493.15	-1498.4	520.8	444.02	-1499	531.71	311.76	-1654.6	347.54	434.55	-1618.9	267.07	414.22	NaN	NaN	NaN	-1582.9	330.33	423.68	-1725	180.37	400.54	-1712.4	189.07	323.63	-1802.3	165.57	350.58	-1805.4	138.1	322.43	-1813.7	141.39	383.59	-1670.4	51.194	432.55	-1636.4	48.1	327.32	-1580.7	53.379	364.83	-1317.9	680.38	161.1	-1222	625.23	182.15	-1291.1	590.65	183.11	-1243.1	710.65	159.25	-1228.8	522.83	193.02	-1218.4	524.55	321.7	-1237.3	300.6	191.77	-1149	234.39	204.13	-1216.2	226.66	201.89	-1172.3	307.14	194.9	-1148.2	113.09	211.71	-1136.8	128.15	296.83	-1199.3	65.449	257.26	-1180.8	40.339	291.39	-1183.6	39.798	227.13	-1012.1	76.691	194.56	NaN	NaN	NaN	-945.24	126.21	253.48	-1461.6	1491.8	350.39	-1541.8	1281.8	348.79
6	0.020833	-1246.2	1275.1	317.7	-1363.4	1433	480.04	-1392.8	1454.9	181.53	-1403.5	1746.2	354.21	NaN	NaN	NaN	NaN	NaN	NaN	-1497	1021.2	357.67	-1495.9	1028.8	276.61	-1370.4	926.43	514.66	-1350.2	958.12	149.99	-1389.9	1082.7	488.03	-1389.6	1099.6	187.73	-1515.7	989.81	321.2	NaN	NaN	NaN	-1388.1	625.84	476.18	-1448.4	636.32	487.47	-1369.9	707.33	492.78	-1490.8	519.42	444.11	-1491.4	530.25	312.06	-1648.1	347.86	435.06	-1614.9	267.36	414.55	NaN	NaN	NaN	-1577.7	330.24	423.95	-1721.7	182	400.75	-1709	190.43	323.9	-1799	168.58	350.56	-1802.5	141.31	322.38	-1811	144.66	383.55	-1669.8	51.42	432.63	-1635.8	48.131	327.44	-1580.6	53.337	364.75	-1311.6	679.76	161.12	-1215.5	624.83	182.58	-1285.1	590.03	183.36	-1236.9	709.99	159.92	-1222.8	522.2	193.57	-1213	523.93	322.13	-1233.3	300.03	192.14	-1145.5	233.08	204.77	-1212.8	225.98	202.26	-1168	306.17	195.63	-1145.9	112.26	212.02	-1134.7	126.72	297.35	-1197.7	65.996	257.49	-1180	40.276	291.54	-1182.7	40.134	227.28	-1010.5	73.791	195.23	NaN	NaN	NaN	-942.83	122.1	254.65	-1456.2	1491	349.88	-1536.1	1280.9	348.09
7	0.025	-1240.4	1274.6	317.53	-1358.4	1432.3	479.73	-1386.6	1454.1	181.04	-1398.1	1745.5	353.96	NaN	NaN	NaN	NaN	NaN	NaN	-1490.9	1020.4	357.08	-1489.6	1028	276.02	-1364.5	925.66	514.1	-1343.2	957.61	149.66	-1383.9	1082	487.57	-1383.5	1099	187.27	-1509.5	989	320.55	NaN	NaN	NaN	-1379.7	625.42	476.35	-1441.3	635.41	487.4	-1362.7	706.69	492.44	-1482.9	518.03	444.25	-1483.6	528.72	312.39	-1641.5	348.22	435.51	-1610.8	267.65	414.91	NaN	NaN	NaN	-1572.3	330.15	424.25	-1718.2	183.69	400.97	-1705.2	191.81	324.17	-1795.4	171.73	350.51	-1799.5	144.65	322.31	-1808.1	148.1	383.49	-1669.3	51.686	432.7	NaN	NaN	NaN	-1580.4	53.284	364.67	-1305.2	679.18	161.11	-1208.8	624.46	182.89	-1279	589.44	183.56	-1230.7	709.35	160.57	-1216.8	521.59	194.09	-1207.7	523.31	322.56	-1229.1	299.49	192.5	-1141.8	231.81	205.4	-1209.3	225.31	202.59	-1163.7	305.22	196.35	-1143.5	111.47	212.32	-1132.4	125.32	297.86	-1196.1	66.568	257.73	-1179.1	40.257	291.69	-1181.7	40.497	227.43	-1009	70.908	195.86	NaN	NaN	NaN	-940.45	117.95	255.71	-1450.8	1490.2	349.35	-1530.4	1280	347.38
8	0.029167	-1234.4	1274.2	317.36	-1353.3	1431.7	479.41	-1380.3	1453.3	180.53	-1392.8	1744.8	353.71	NaN	NaN	NaN	NaN	NaN	NaN	-1484.7	1019.6	356.48	-1483.4	1027.3	275.43	-1358.4	924.89	513.53	-1336.2	957.14	149.31	-1377.9	1081.3	487.11	-1377.2	1098.4	186.8	-1503.2	988.19	319.89	NaN	NaN	NaN	-1371.1	624.99	476.5	-1434	634.48	487.34	-1355.5	706.04	492.14	-1474.9	516.62	444.44	-1475.5	527.13	312.74	-1634.8	348.63	435.91	-1606.6	267.93	415.32	NaN	NaN	NaN	-1566.7	330.06	424.58	-1714.5	185.42	401.18	-1701.3	193.23	324.44	-1791.6	175.01	350.43	-1796.1	148.13	322.22	-1804.8	151.69	383.41	-1668.7	52	432.77	NaN	NaN	NaN	-1580.2	53.216	364.58	-1298.8	678.66	161.08	-1202	624.15	183.08	-1272.8	588.88	183.72	-1224.3	708.77	161.17	-1210.8	520.99	194.57	-1202.3	522.69	322.99	-1224.9	298.99	192.86	-1138.1	230.6	206.02	-1205.6	224.67	202.89	-1159.2	304.31	197.05	-1141.2	110.73	212.6	-1130.2	123.98	298.35	-1194.5	67.155	257.96	-1178.3	40.28	291.83	-1180.8	40.881	227.58	-1007.5	68.071	196.42	NaN	NaN	NaN	-938.13	113.78	256.67	-1445.3	1489.4	348.82	-1524.5	1279.1	346.65
9	0.033333	-1228.4	1273.8	317.18	-1348.1	1431	479.09	-1374	1452.5	180.02	-1387.4	1744.2	353.47	NaN	NaN	NaN	NaN	NaN	NaN	-1478.4	1018.8	355.88	-1477	1026.6	274.83	-1352.3	924.11	512.96	-1329.2	956.72	148.94	-1371.8	1080.6	486.64	-1370.8	1097.8	186.33	-1496.9	987.41	319.23	NaN	NaN	NaN	-1362.3	624.56	476.63	-1426.5	633.53	487.3	-1348.1	705.39	491.88	-1466.8	515.2	444.68	-1467.2	525.47	313.13	-1628	349.08	436.24	-1602.2	268.2	415.77	NaN	NaN	NaN	-1560.9	329.98	424.95	-1710.6	187.2	401.39	-1697.1	194.66	324.71	-1787.4	178.41	350.32	-1792.5	151.76	322.11	-1801.3	155.43	383.31	-1668.1	52.371	432.83	NaN	NaN	NaN	-1580	53.13	364.49	-1292.4	678.19	161.01	-1195.1	623.9	183.11	-1266.6	588.37	183.83	-1217.9	708.23	161.72	-1204.8	520.42	195	-1197.1	522.09	323.41	-1220.6	298.54	193.21	-1134.3	229.45	206.63	-1201.8	224.07	203.15	-1154.7	303.44	197.71	-1138.9	110.03	212.86	-1127.9	122.69	298.82	-1192.9	67.751	258.18	-1177.5	40.341	291.97	-1180	41.282	227.72	-1006	65.309	196.93	NaN	NaN	NaN	-935.89	109.62	257.51	-1439.8	1488.7	348.27	-1518.6	1278.2	345.9
